<?xml version="1.0" encoding="utf-8"?>
<!-- Generator: Adobe Illustrator 27.4.1, SVG Export Plug-In . SVG Version: 6.00 Build 0)  -->
<svg version="1.1" id="レイヤー_1" xmlns="http://www.w3.org/2000/svg" xmlns:xlink="http://www.w3.org/1999/xlink" x="0px"
	 y="0px" viewBox="0 0 323 323" style="enable-background:new 0 0 323 323;" xml:space="preserve">
<style type="text/css">
	.st0{fill:#F7931E;}
</style>
<g>
	<circle class="st0" cx="161.3" cy="161.5" r="77.1"/>
	<g>
		<path class="st0" d="M161.5,68.9L161.5,68.9c-6.5,0-11.7-5.2-11.7-11.7V11.7C149.8,5.2,155,0,161.5,0h0c6.5,0,11.7,5.2,11.7,11.7
			v45.5C173.2,63.6,168,68.9,161.5,68.9z"/>
		<path class="st0" d="M161.5,254.1L161.5,254.1c-6.5,0-11.7,5.2-11.7,11.7v45.5c0,6.5,5.2,11.7,11.7,11.7h0
			c6.5,0,11.7-5.2,11.7-11.7v-45.5C173.2,259.4,168,254.1,161.5,254.1z"/>
	</g>
	<g>
		<path class="st0" d="M68.9,161.5L68.9,161.5c0,6.5-5.2,11.7-11.7,11.7H11.7C5.2,173.2,0,168,0,161.5v0c0-6.5,5.2-11.7,11.7-11.7
			h45.5C63.6,149.8,68.9,155,68.9,161.5z"/>
		<path class="st0" d="M254.1,161.5L254.1,161.5c0,6.5,5.2,11.7,11.7,11.7h45.5c6.5,0,11.7-5.2,11.7-11.7v0
			c0-6.5-5.2-11.7-11.7-11.7h-45.5C259.4,149.8,254.1,155,254.1,161.5z"/>
	</g>
	<g>
		<path class="st0" d="M96,96L96,96c-4.6,4.6-12,4.6-16.6,0L47.3,63.9c-4.6-4.6-4.6-12,0-16.6l0,0c4.6-4.6,12-4.6,16.6,0L96,79.5
			C100.6,84,100.6,91.4,96,96z"/>
		<path class="st0" d="M227,227L227,227c-4.6,4.6-4.6,12,0,16.6l32.2,32.2c4.6,4.6,12,4.6,16.6,0h0c4.6-4.6,4.6-12,0-16.6L243.5,227
			C239,222.4,231.6,222.4,227,227z"/>
	</g>
	<g>
		<path class="st0" d="M227,96L227,96c-4.6-4.6-4.6-12,0-16.6l32.2-32.2c4.6-4.6,12-4.6,16.6,0l0,0c4.6,4.6,4.6,12,0,16.6L243.5,96
			C239,100.6,231.6,100.6,227,96z"/>
		<path class="st0" d="M96,227L96,227c-4.6-4.6-12-4.6-16.6,0l-32.2,32.2c-4.6,4.6-4.6,12,0,16.6l0,0c4.6,4.6,12,4.6,16.6,0
			L96,243.5C100.6,239,100.6,231.6,96,227z"/>
	</g>
</g>
</svg>
