<?xml version="1.0" encoding="utf-8"?>
<!-- Generator: Adobe Illustrator 27.4.1, SVG Export Plug-In . SVG Version: 6.00 Build 0)  -->
<svg version="1.1" id="レイヤー_1" xmlns="http://www.w3.org/2000/svg" xmlns:xlink="http://www.w3.org/1999/xlink" x="0px"
	 y="0px" viewBox="0 0 448 310" style="enable-background:new 0 0 448 310;" xml:space="preserve">
<style type="text/css">
	.st0{fill:#F7931E;}
	.st1{fill:#999999;}
</style>
<g>
	<g>
		<circle class="st0" cx="145.4" cy="145.5" r="69.5"/>
		<g>
			<path class="st0" d="M147.1,62.1h-3.2c-4.9,0-8.9-4-8.9-8.9V8.9c0-4.9,4-8.9,8.9-8.9l3.2,0c4.9,0,8.9,4,8.9,8.9v44.2
				C156,58,152,62.1,147.1,62.1z"/>
			<path class="st0" d="M147.1,228.9h-3.2c-4.9,0-8.9,4-8.9,8.9v44.2c0,4.9,4,8.9,8.9,8.9h3.2c4.9,0,8.9-4,8.9-8.9v-44.2
				C156,233,152,228.9,147.1,228.9z"/>
		</g>
		<g>
			<path class="st0" d="M62.1,143.9v3.2c0,4.9-4,8.9-8.9,8.9H8.9C4,156,0,152,0,147.1l0-3.2c0-4.9,4-8.9,8.9-8.9h44.2
				C58,135,62.1,139,62.1,143.9z"/>
			<path class="st0" d="M228.9,143.9v3.2c0,4.9,4,8.9,8.9,8.9h44.2c4.9,0,8.9-4,8.9-8.9v-3.2c0-4.9-4-8.9-8.9-8.9h-44.2
				C233,135,228.9,139,228.9,143.9z"/>
		</g>
		<g>
			<path class="st0" d="M87.6,85.4l-2.3,2.3c-3.5,3.5-9.2,3.5-12.7,0L41.5,56.4c-3.5-3.5-3.5-9.2,0-12.7l2.3-2.3
				c3.5-3.5,9.2-3.5,12.7,0l31.2,31.2C91.1,76.2,91.1,81.9,87.6,85.4z"/>
			<path class="st0" d="M205.6,203.4l-2.3,2.3c-3.5,3.5-3.5,9.2,0,12.7l31.2,31.2c3.5,3.5,9.2,3.5,12.7,0l2.3-2.3
				c3.5-3.5,3.5-9.2,0-12.7l-31.2-31.2C214.8,199.9,209.1,199.9,205.6,203.4z"/>
		</g>
		<g>
			<path class="st0" d="M205.6,87.6l-2.3-2.3c-3.5-3.5-3.5-9.2,0-12.7l31.2-31.2c3.5-3.5,9.2-3.5,12.7,0l2.3,2.3
				c3.5,3.5,3.5,9.2,0,12.7l-31.2,31.2C214.8,91.1,209.1,91.1,205.6,87.6z"/>
			<path class="st0" d="M87.6,205.6l-2.3-2.3c-3.5-3.5-9.2-3.5-12.7,0l-31.2,31.2c-3.5,3.5-3.5,9.2,0,12.7l2.3,2.3
				c3.5,3.5,9.2,3.5,12.7,0l31.2-31.2C91.1,214.8,91.1,209.1,87.6,205.6z"/>
		</g>
	</g>
	<path class="st1" d="M379.3,172.7C379.3,172.7,379.3,172.7,379.3,172.7c0-1.1,0-2.3,0-3.4c0-55-44.6-99.6-99.6-99.6
		c-51.5,0-93.9,39.1-99,89.3c-7.2-2.2-14.9-3.4-22.9-3.4c-42.8,0-77.4,34.7-77.3,77.5c0.1,42.7,35.4,77,78.1,77h219.8
		c37.9,0,69.3-30.3,69.5-68.2C448.3,203.7,417.4,172.7,379.3,172.7z"/>
</g>
</svg>
