<?xml version="1.0" encoding="utf-8"?>
<!-- Generator: Adobe Illustrator 27.4.1, SVG Export Plug-In . SVG Version: 6.00 Build 0)  -->
<svg version="1.1" id="レイヤー_1" xmlns="http://www.w3.org/2000/svg" xmlns:xlink="http://www.w3.org/1999/xlink" x="0px"
	 y="0px" viewBox="0 0 402.4 254.4" style="enable-background:new 0 0 402.4 254.4;" xml:space="preserve">
<style type="text/css">
	.st0{fill:#808080;}
	.st1{fill:#999999;}
</style>
<g>
	<path class="st0" d="M272.7,94C272.7,94,272.6,94,272.7,94c0-1,0-2.1,0-3.1C272.7,40.7,232,0,181.8,0c-47,0-85.7,35.7-90.4,81.5
		c-6.6-2-13.6-3.1-20.9-3.1c-39,0-70.7,31.7-70.5,70.8c0.1,39,32.3,70.3,71.3,70.3h200.6c34.6,0,63.2-27.7,63.5-62.2
		C335.6,122.3,307.5,94,272.7,94z"/>
	<path class="st1" d="M333.7,117.1C333.7,117.1,333.7,117.1,333.7,117.1c0-1.1,0-2.3,0-3.4c0-55-44.6-99.6-99.6-99.6
		c-51.5,0-93.9,39.1-99,89.3c-7.2-2.2-14.9-3.4-22.9-3.4c-42.8,0-77.4,34.7-77.3,77.5c0.1,42.7,35.4,77,78.1,77h219.8
		c37.9,0,69.3-30.3,69.5-68.2C402.6,148.1,371.8,117.1,333.7,117.1z"/>
</g>
</svg>
