<?xml version="1.0" encoding="utf-8"?>
<!-- Generator: Adobe Illustrator 27.4.1, SVG Export Plug-In . SVG Version: 6.00 Build 0)  -->
<svg version="1.1" id="レイヤー_1" xmlns="http://www.w3.org/2000/svg" xmlns:xlink="http://www.w3.org/1999/xlink" x="0px"
	 y="0px" viewBox="0 0 367.4 385.2" style="enable-background:new 0 0 367.4 385.2;" xml:space="preserve">
<style type="text/css">
	.st0{fill:#808080;}
	.st1{fill:#29ABE2;}
</style>
<g>
	<path class="st0" d="M298.7,103C298.7,103,298.7,103,298.7,103c0-1.1,0-2.3,0-3.4c0-55-44.6-99.6-99.6-99.6
		c-51.5,0-93.9,39.1-99,89.3c-7.2-2.2-14.9-3.4-22.9-3.4c-42.8,0-77.4,34.7-77.3,77.5c0.1,42.7,35.4,77,78.1,77h219.8
		c37.9,0,69.3-30.3,69.5-68.2C367.6,134,336.8,103,298.7,103z"/>
	<g>
		<path class="st1" d="M62.4,359.3L62.4,359.3c-7.9,0-13.3-8-10.3-15.3l8.7-21.2c1.7-4.2,5.8-6.9,10.3-6.9h0c7.9,0,13.3,8,10.3,15.3
			l-8.7,21.2C70.9,356.6,66.9,359.3,62.4,359.3z"/>
		<path class="st1" d="M85.4,303.4L85.4,303.4c-7.9,0-13.3-8-10.3-15.3l8.7-21.2c1.7-4.2,5.8-6.9,10.3-6.9h0c7.9,0,13.3,8,10.3,15.3
			l-8.7,21.2C93.9,300.7,89.9,303.4,85.4,303.4z"/>
		<path class="st1" d="M146.8,385.2L146.8,385.2c-7.9,0-13.3-8-10.3-15.3l14.1-34.4c1.7-4.2,5.8-6.9,10.3-6.9h0
			c7.9,0,13.3,8,10.3,15.3L157,378.3C155.3,382.5,151.3,385.2,146.8,385.2z"/>
		<path class="st1" d="M175.2,316L175.2,316c-7.9,0-13.3-8-10.3-15.3l13.9-33.7c1.7-4.2,5.8-6.9,10.3-6.9h0c7.9,0,13.3,8,10.3,15.3
			l-13.9,33.7C183.8,313.2,179.7,316,175.2,316z"/>
		<path class="st1" d="M254.1,355.1L254.1,355.1c-7.9,0-13.3-8-10.3-15.3l11.3-27.4c1.7-4.2,5.8-6.9,10.3-6.9h0
			c7.9,0,13.3,8,10.3,15.3l-11.3,27.4C262.7,352.4,258.6,355.1,254.1,355.1z"/>
		<path class="st1" d="M279.7,292.9L279.7,292.9c-7.9,0-13.3-8-10.3-15.3l4.4-10.7c1.7-4.2,5.8-6.9,10.3-6.9l0,0
			c7.9,0,13.3,8,10.3,15.3l-4.4,10.7C288.2,290.2,284.2,292.9,279.7,292.9z"/>
	</g>
</g>
</svg>
