<?xml version="1.0" encoding="utf-8"?>
<!-- Generator: Adobe Illustrator 27.4.1, SVG Export Plug-In . SVG Version: 6.00 Build 0)  -->
<svg version="1.1" id="レイヤー_1" xmlns="http://www.w3.org/2000/svg" xmlns:xlink="http://www.w3.org/1999/xlink" x="0px"
	 y="0px" viewBox="0 0 367.4 325.5" style="enable-background:new 0 0 367.4 325.5;" xml:space="preserve">
<style type="text/css">
	.st0{fill:#4B4B4B;}
	.st1{fill:#FFE05A;}
</style>
<g>
	<path class="st0" d="M298.7,103C298.7,103,298.7,103,298.7,103c0-1.1,0-2.3,0-3.4c0-55-44.6-99.6-99.6-99.6
		c-51.5,0-93.9,39.1-99,89.3c-7.2-2.2-14.9-3.4-22.9-3.4c-42.8,0-77.4,34.7-77.3,77.5c0.1,42.7,35.4,77,78.1,77h47.4
		c1.7,0,3.1-1.2,3.3-2.9l12.5-97.2c0.2-1.7,1.6-2.9,3.3-2.9h110.4c2.3,0,3.9,2.3,3.1,4.5l-22.2,59.7c-0.8,2.2,0.8,4.5,3.1,4.5h33.2
		c2.7,0,4.3,3,2.8,5.2l-16.2,23.9c-1.5,2.2,0.1,5.2,2.8,5.2h36.3c37.9,0,69.3-30.3,69.5-68.2C367.6,134,336.8,103,298.7,103z"/>
	<path class="st1" d="M223.7,157.9h-60.1c-2.2,0-4.1,1.7-4.4,3.9l-11.6,90.7c-0.3,2.6,1.7,5,4.4,5h18.6c2.7,0,4.8,2.4,4.4,5.1
		l-9,57.8c-0.7,4.7,5.4,7.1,8,3.2l61-90c2-2.9-0.1-6.9-3.7-6.9h-20.4c-3.1,0-5.2-3.1-4.2-6l21.1-56.7
		C228.9,161,226.8,157.9,223.7,157.9z"/>
</g>
</svg>
