<?xml version="1.0" encoding="utf-8"?>
<!-- Generator: Adobe Illustrator 27.4.1, SVG Export Plug-In . SVG Version: 6.00 Build 0)  -->
<svg version="1.1" id="レイヤー_1" xmlns="http://www.w3.org/2000/svg" xmlns:xlink="http://www.w3.org/1999/xlink" x="0px"
	 y="0px" viewBox="0 0 308.8 351" style="enable-background:new 0 0 308.8 351;" xml:space="preserve">
<style type="text/css">
	.st0{fill:#B2E0FF;}
</style>
<path class="st0" d="M154.4,351c-5,0-9.1-4.1-9.1-9.1v-55.5l-34.4,34.4c-1.7,1.7-4,2.7-6.5,2.7s-4.7-0.9-6.5-2.7
	c-3.6-3.6-3.6-9.3,0-12.9l47.4-47.4v-69.2l-60,34.6L68,290.6c-1.1,4-4.7,6.8-8.8,6.8c-0.8,0-1.6-0.1-2.4-0.3
	c-4.9-1.3-7.8-6.3-6.5-11.2l12.6-47.1l-48.1,27.7c-1.4,0.8-3,1.2-4.6,1.2c-3.3,0-6.3-1.7-7.9-4.6c-1.2-2.1-1.5-4.6-0.9-6.9
	c0.6-2.4,2.1-4.3,4.3-5.5L53.8,223L6.8,210.4c-4.9-1.3-7.8-6.3-6.5-11.2c1.1-4,4.7-6.8,8.8-6.8c0.8,0,1.6,0.1,2.4,0.3l64.7,17.3
	l60-34.6l-60-34.6l-64.7,17.3c-0.8,0.2-1.6,0.3-2.4,0.3c-4.1,0-7.7-2.8-8.8-6.8c-1.3-4.9,1.6-9.9,6.5-11.2L53.8,128L5.8,100.2
	C3.6,99,2.1,97,1.5,94.7c-0.6-2.4-0.3-4.8,0.9-6.9c1.6-2.8,4.7-4.6,7.9-4.6c1.6,0,3.2,0.4,4.6,1.2l48.1,27.8L50.3,65.1
	c-1.3-4.9,1.6-9.9,6.5-11.2c0.8-0.2,1.6-0.3,2.4-0.3c4.1,0,7.7,2.8,8.8,6.8l17.3,64.7l60,34.6V90.5L97.9,43.1
	c-3.6-3.6-3.6-9.4,0-12.9c1.7-1.7,4-2.7,6.5-2.7s4.7,0.9,6.5,2.7l34.4,34.4V9.1c0-5,4.1-9.1,9.1-9.1s9.1,4.1,9.1,9.1v55.5L198,30.2
	c1.7-1.7,4-2.7,6.5-2.7s4.7,0.9,6.5,2.7c3.6,3.6,3.6,9.3,0,12.9l-47.4,47.4v69.2l60-34.6l17.3-64.7c1.1-4,4.7-6.8,8.8-6.8
	c0.8,0,1.6,0.1,2.4,0.3c4.9,1.3,7.8,6.3,6.5,11.2l-12.6,47.1l48.1-27.7c1.4-0.8,3-1.2,4.6-1.2c3.3,0,6.3,1.7,7.9,4.6
	c1.2,2.1,1.5,4.6,0.9,6.9c-0.6,2.4-2.1,4.3-4.3,5.5L255,128l47.1,12.6c4.9,1.3,7.8,6.3,6.5,11.2c-1.1,4-4.7,6.8-8.8,6.8
	c-0.8,0-1.6-0.1-2.4-0.3l-64.7-17.3l-60,34.6l60,34.6l64.7-17.3c0.8-0.2,1.6-0.3,2.4-0.3c4.1,0,7.7,2.8,8.8,6.8
	c1.3,4.9-1.6,9.9-6.5,11.2L255,223l48.1,27.8c2.1,1.2,3.6,3.2,4.3,5.5c0.6,2.4,0.3,4.8-0.9,6.9c-1.6,2.8-4.7,4.6-7.9,4.6
	c0,0,0,0,0,0c-1.6,0-3.2-0.4-4.6-1.2l-48.1-27.8l12.6,47.1c1.3,4.9-1.6,9.9-6.5,11.2c-0.8,0.2-1.6,0.3-2.4,0.3
	c-4.1,0-7.7-2.8-8.8-6.8l-17.3-64.7l-60-34.6v69.2l47.4,47.4c3.6,3.6,3.6,9.4,0,12.9c-1.7,1.7-4,2.7-6.5,2.7s-4.7-0.9-6.5-2.7
	l-34.4-34.4v55.5C163.5,346.9,159.4,351,154.4,351z"/>
</svg>
