<?xml version="1.0" encoding="utf-8"?>
<!-- Generator: Adobe Illustrator 27.4.1, SVG Export Plug-In . SVG Version: 6.00 Build 0)  -->
<svg version="1.1" id="レイヤー_1" xmlns="http://www.w3.org/2000/svg" xmlns:xlink="http://www.w3.org/1999/xlink" x="0px"
	 y="0px" viewBox="0 0 266 266" style="enable-background:new 0 0 266 266;" xml:space="preserve">
<style type="text/css">
	.st0{fill:#FFFFFF;}
</style>
<g>
	<path class="st0" d="M133,0C59.5,0,0,59.5,0,133c0,73.5,59.5,133,133,133c73.5,0,133-59.5,133-133C266,59.5,206.5,0,133,0z
		 M133,250.3c-64.7,0-117.3-52.6-117.3-117.3C15.7,68.3,68.3,15.7,133,15.7c64.7,0,117.3,52.6,117.3,117.3
		C250.3,197.7,197.7,250.3,133,250.3z"/>
	<path class="st0" d="M200.4,65.7c-3.7-3.7-9.8-3.7-13.5,0l-38.2,38.2c-4.7-2.5-10-3.9-15.7-3.9c-18.3,0-33.1,14.8-33.1,33.1
		c0,5.7,1.4,11,3.9,15.7l-8.2,8.2c-3-1.3-6.3-2-9.8-2c-13.9,0-25.3,11.3-25.3,25.3c0,13.9,11.3,25.3,25.3,25.3
		c13.9,0,25.3-11.3,25.3-25.3c0-3.5-0.7-6.8-2-9.8l8.2-8.2c4.7,2.5,10,3.9,15.7,3.9c18.3,0,33.1-14.8,33.1-33.1
		c0-5.7-1.4-11-3.9-15.7l38.2-38.2C204.1,75.4,204.1,69.4,200.4,65.7z"/>
</g>
</svg>
