<?xml version="1.0" encoding="utf-8"?>
<!-- Generator: Adobe Illustrator 27.4.1, SVG Export Plug-In . SVG Version: 6.00 Build 0)  -->
<svg version="1.1" id="レイヤー_1" xmlns="http://www.w3.org/2000/svg" xmlns:xlink="http://www.w3.org/1999/xlink" x="0px"
	 y="0px" viewBox="0 0 330.4 273.1" style="enable-background:new 0 0 330.4 273.1;" xml:space="preserve">
<style type="text/css">
	.st0{fill:#4D4D4D;}
</style>
<g>
	<path class="st0" d="M165.3,99.5c-15.5,0-29.5,6.3-39.6,16.6s-16.4,24.4-16.4,40.1s6.3,29.8,16.4,40.1
		c10.2,10.3,24.1,16.6,39.6,16.6s29.5-6.3,39.6-16.6c10.2-10.3,16.4-24.4,16.4-40.1s-6.3-29.8-16.4-40.1
		C194.7,105.8,180.8,99.5,165.3,99.5z M165.3,191.2c-19.2,0-34.6-15.6-34.6-35s15.5-35,34.6-35s34.6,15.6,34.6,35
		S184.4,191.2,165.3,191.2z"/>
	<path class="st0" d="M320.7,58.8c-6.1-6.1-14.5-9.9-23.8-9.9h-36.4c-2.9,0-5.7-1.7-6.9-4.6l-10.9-24.4C237.2,7.8,225.3,0,212,0
		h-93.3c-13.3,0-25.3,7.9-30.7,19.9L77,44.3c-1.3,2.8-4,4.6-6.9,4.6H33.7c-9.3,0-17.8,3.9-23.9,9.9C3.8,64.9,0,73.4,0,82.7v156.7
		c0,9.3,3.8,17.8,9.8,23.9c6.1,6.1,14.6,9.9,23.9,9.9h263.1c9.3,0,17.8-3.9,23.8-9.9c6.1-6.1,9.8-14.6,9.8-23.9V82.7
		C330.4,73.4,326.6,64.9,320.7,58.8L320.7,58.8z M219.2,210.3c-13.8,13.9-32.9,22.5-53.9,22.5s-40.1-8.6-53.9-22.5
		s-22.3-33-22.3-54.2c0-21.1,8.5-40.3,22.3-54.2c13.8-13.9,32.9-22.5,53.9-22.5s40.1,8.6,53.9,22.5c13.8,13.9,22.3,33.1,22.3,54.2
		S232.9,196.5,219.2,210.3z M286.7,115.7c-9.6,0-17.4-7.8-17.4-17.4s7.8-17.4,17.4-17.4c9.6,0,17.4,7.8,17.4,17.4
		S296.3,115.7,286.7,115.7z"/>
</g>
</svg>
