<?xml version="1.0" encoding="utf-8"?>
<!-- Generator: Adobe Illustrator 27.4.1, SVG Export Plug-In . SVG Version: 6.00 Build 0)  -->
<svg version="1.1" id="レイヤー_1" xmlns="http://www.w3.org/2000/svg" xmlns:xlink="http://www.w3.org/1999/xlink" x="0px"
	 y="0px" viewBox="0 0 238 247.3" style="enable-background:new 0 0 238 247.3;" xml:space="preserve">
<style type="text/css">
	.st0{fill:#4D4D4D;}
</style>
<path class="st0" d="M108.7,3.8L5.6,91.8C2,94.8,0,99.2,0,103.9v127.5c0,8.8,7.1,15.9,15.9,15.9h58.6c8.8,0,15.9-7.1,15.9-15.9v-66
	c0-4.7,3.8-8.5,8.5-8.5h40c4.7,0,8.5,3.8,8.5,8.5v66c0,8.8,7.1,15.9,15.9,15.9h58.6c8.8,0,15.9-7.1,15.9-15.9V103.9
	c0-4.7-2-9.1-5.6-12.1l-103.1-88C123.4-1.3,114.6-1.3,108.7,3.8z"/>
</svg>
