<?xml version="1.0" encoding="utf-8"?>
<!-- Generator: Adobe Illustrator 27.4.1, SVG Export Plug-In . SVG Version: 6.00 Build 0)  -->
<svg version="1.1" id="レイヤー_1" xmlns="http://www.w3.org/2000/svg" xmlns:xlink="http://www.w3.org/1999/xlink" x="0px"
	 y="0px" viewBox="0 0 211.4 289.9" style="enable-background:new 0 0 211.4 289.9;" xml:space="preserve">
<style type="text/css">
	.st0{fill:#FFFFFF;}
</style>
<path class="st0" d="M105.7,0L92.5,14.8c0,0-22.5,25.5-45.3,58.7C24.5,106.6,0,146.2,0,184.2c0,28,11.1,54.9,31,74.7
	c19.8,19.8,46.7,31,74.7,31c28,0,54.9-11.1,74.7-31c19.8-19.8,31-46.7,31-74.7c0-38-24.5-77.7-47.2-110.8
	c-14-20.4-29.1-39.9-45.3-58.7L105.7,0z M105.7,55.1c7.8,9.2,14.8,16.7,29.6,38.2c21.3,31,40.9,70.5,40.9,90.9
	c0,39.1-31.4,70.5-70.5,70.5s-70.5-31.4-70.5-70.5c0-20.4,19.6-59.9,40.9-90.9C90.9,71.9,97.9,64.3,105.7,55.1z"/>
</svg>
