<?xml version="1.0" encoding="utf-8"?>
<!-- Generator: Adobe Illustrator 27.4.1, SVG Export Plug-In . SVG Version: 6.00 Build 0)  -->
<svg version="1.1" id="レイヤー_1" xmlns="http://www.w3.org/2000/svg" xmlns:xlink="http://www.w3.org/1999/xlink" x="0px"
	 y="0px" viewBox="0 0 211.9 264.9" style="enable-background:new 0 0 211.9 264.9;" xml:space="preserve">
<style type="text/css">
	.st0{fill:#FFFFFF;}
</style>
<g>
	<path class="st0" d="M105.9,158.9c29.2,0,53-23.8,53-53c0-29.2-23.8-53-53-53c-29.2,0-53,23.8-53,53
		C53,135.2,76.7,158.9,105.9,158.9z M105.9,79.5c14.6,0,26.5,11.9,26.5,26.5c0,14.6-11.9,26.5-26.5,26.5
		c-14.6,0-26.5-11.9-26.5-26.5C79.5,91.3,91.3,79.5,105.9,79.5z"/>
	<path class="st0" d="M98.3,262.4c2.2,1.6,4.9,2.5,7.7,2.5c2.8,0,5.4-0.9,7.7-2.5c4-2.8,98.7-71.2,98.3-156.5
		C211.9,47.5,164.4,0,105.9,0C47.5,0,0,47.5,0,105.9C-0.4,191.2,94.2,259.6,98.3,262.4z M105.9,26.5c43.8,0,79.5,35.6,79.5,79.5
		c0.3,58.8-58.1,111.6-79.5,128.9c-21.3-17.3-79.7-70.1-79.5-128.9C26.5,62.1,62.1,26.5,105.9,26.5z"/>
</g>
</svg>
