<svg width="266" height="65" viewBox="0 0 266 65" fill="none" xmlns="http://www.w3.org/2000/svg">
<path d="M230.146 11.9942C229.698 12.039 229.339 11.9269 229.07 11.658C228.846 11.3443 228.734 11.0082 228.734 10.6496C228.734 10.2463 228.846 9.91013 229.07 9.64123C229.339 9.37232 229.698 9.26027 230.146 9.30509L232.297 9.43954C234.673 9.61881 237.026 9.70845 239.356 9.70845C240.118 9.70845 240.701 9.50677 241.104 9.10341C241.507 8.65523 241.709 8.07259 241.709 7.3555V4.19583C241.709 3.07538 242.023 2.24624 242.65 1.70843C243.322 1.12579 244.152 0.834473 245.138 0.834473C245.944 0.834473 246.617 0.991336 247.154 1.30506C247.692 1.61879 247.961 1.93252 247.961 2.24624C247.961 2.60479 247.603 2.80647 246.885 2.85129C246.617 2.89611 246.392 3.05297 246.213 3.32188C246.079 3.59079 246.012 3.8821 246.012 4.19583V7.3555C246.012 8.07259 246.213 8.65523 246.617 9.10341C247.065 9.50677 247.647 9.70845 248.364 9.70845H251.255C251.883 9.70845 252.376 9.59641 252.734 9.37232C253.093 9.14823 253.541 8.76727 254.079 8.22945C255.244 7.06418 256.275 6.48155 257.171 6.48155C258.068 6.48155 259.031 7.06418 260.062 8.22945C260.555 8.81209 260.801 9.37231 260.801 9.91013C260.801 10.4031 260.6 10.8065 260.196 11.1202C259.793 11.4339 259.21 11.5908 258.449 11.5908H238.953C236.622 11.5908 234.404 11.6804 232.297 11.8597C231.939 11.8597 231.222 11.9045 230.146 11.9942ZM200.163 30.6833C201.328 29.2939 202.74 27.1875 204.398 24.364C206.101 21.5404 207.714 18.3807 209.238 14.8849C210.807 11.3891 211.972 8.00536 212.734 4.73365C213.003 3.61319 213.518 2.76165 214.28 2.17902C215.087 1.59638 215.961 1.30506 216.902 1.30506C217.261 1.30506 217.709 1.3947 218.247 1.57397C218.919 1.84288 219.434 2.15661 219.793 2.51515C220.152 2.87369 220.331 3.23224 220.331 3.59078C220.331 3.8597 220.241 4.03897 220.062 4.1286C219.883 4.17342 219.591 4.19583 219.188 4.19583C218.829 4.19583 218.516 4.33028 218.247 4.59919C218.023 4.8681 217.911 5.18183 217.911 5.54037C217.911 6.03337 218.135 6.50396 218.583 6.95214C220.555 8.78968 222.392 10.8737 224.096 13.2043C225.843 15.5348 226.717 17.4172 226.717 18.8513C226.717 19.7029 226.471 20.3976 225.978 20.9354C225.485 21.4732 224.925 21.7421 224.297 21.7421C223.804 21.7421 223.311 21.5404 222.818 21.1371C222.37 20.7337 222.056 20.1287 221.877 19.3219C221.429 17.6637 220.824 15.983 220.062 14.2799C219.3 12.532 218.404 10.9634 217.373 9.574C217.104 9.21545 216.79 9.03618 216.432 9.03618C216.028 9.03618 215.737 9.28268 215.558 9.77568C213.855 14.123 211.658 18.2911 208.969 22.2799C206.325 26.2687 203.838 29.518 201.507 32.0278C201.104 32.476 200.7 32.7001 200.297 32.7001C200.118 32.7001 199.939 32.6329 199.759 32.4984C199.625 32.3192 199.558 32.1399 199.558 31.9606C199.558 31.5573 199.759 31.1315 200.163 30.6833ZM235.86 24.364C234.068 24.364 231.894 24.4536 229.339 24.6329L227.726 24.7673C227.278 24.8121 226.919 24.7001 226.65 24.4312C226.426 24.1175 226.314 23.7813 226.314 23.4228C226.314 23.0194 226.426 22.6833 226.65 22.4144C226.919 22.1455 227.278 22.0334 227.726 22.0782L229.339 22.2127C232.163 22.392 234.336 22.4816 235.86 22.4816H241.642C242.538 22.4816 243.21 22.1455 243.659 21.4732C244.914 19.7701 246.146 17.3947 247.356 14.3471C247.67 13.63 248.118 13.0922 248.701 12.7337C249.283 12.3751 249.933 12.1959 250.65 12.1959C251.367 12.1959 252.04 12.3751 252.667 12.7337C253.339 13.0922 253.877 13.63 254.28 14.3471C254.46 14.6608 254.549 14.9522 254.549 15.2211C254.549 15.7589 254.348 16.0278 253.944 16.0278C253.81 16.0278 253.631 15.9606 253.407 15.8261C253.138 15.6468 252.846 15.6693 252.533 15.8933C252.219 16.1174 251.703 16.6552 250.986 17.5068C250.18 18.5376 249.216 19.5236 248.096 20.4648C247.647 20.8681 247.423 21.2491 247.423 21.6076C247.423 22.1903 247.894 22.4816 248.835 22.4816H252.801C253.698 22.4816 254.437 22.3023 255.02 21.9438C255.647 21.5404 256.297 21.0026 256.97 20.3303C257.956 19.3443 258.964 18.8513 259.995 18.8513C260.577 18.8513 261.16 19.0306 261.743 19.3892C262.415 19.8373 263.042 20.3751 263.625 21.0026C264.118 21.5852 264.365 22.1455 264.365 22.6833C264.365 23.1763 264.163 23.5796 263.759 23.8934C263.356 24.2071 262.773 24.364 262.012 24.364L252.801 24.4312L235.86 24.364ZM234.986 13.9438C234.807 13.7645 234.717 13.5404 234.717 13.2715C234.717 12.9578 234.829 12.7113 235.054 12.532C235.322 12.3079 235.636 12.2855 235.995 12.4648C237.563 13.137 238.818 13.9886 239.759 15.0194C240.745 16.0054 241.463 16.9914 241.911 17.9774C242.135 18.4256 242.247 18.9186 242.247 19.4564C242.247 20.1735 241.978 20.7337 241.44 21.1371C240.947 21.5404 240.364 21.7421 239.692 21.7421C239.199 21.7421 238.751 21.6301 238.348 21.406C237.944 21.1371 237.675 20.7561 237.541 20.2631C237.406 19.8149 237.182 19.0754 236.869 18.0446C236.6 17.0138 236.308 16.1847 235.995 15.5572C235.726 14.9298 235.39 14.3919 234.986 13.9438ZM203.793 64.1624C203.076 63.759 202.471 63.1764 201.978 62.4145C201.53 61.6526 201.306 60.9131 201.306 60.196C201.306 59.5237 201.53 58.9635 201.978 58.5153C202.426 58.0223 203.076 57.7534 203.927 57.7086C206.034 57.5741 208.409 57.1484 211.053 56.4313C212.398 56.1176 213.07 55.2436 213.07 53.8094V38.6833C213.07 37.9662 212.869 37.406 212.465 37.0026C212.107 36.5993 211.569 36.3976 210.852 36.3976C209.821 36.3976 208.813 36.4424 207.827 36.5321C206.885 36.5769 206.28 36.5993 206.011 36.5993C205.608 36.5993 205.294 36.4648 205.07 36.1959C204.891 35.927 204.801 35.5909 204.801 35.1875C204.801 34.829 204.913 34.5152 205.137 34.2463C205.406 33.9774 205.765 33.8654 206.213 33.9102C208.006 34.1343 209.507 34.2687 210.717 34.3136C211.479 34.3136 212.062 34.1119 212.465 33.7085C212.869 33.3052 213.07 32.7225 213.07 31.9606V30.011C213.07 28.4424 212.331 27.6581 210.852 27.6581C210.135 27.6581 209.552 27.6805 209.104 27.7253C208.701 27.7701 208.409 27.7925 208.23 27.7925C207.871 27.7925 207.58 27.6581 207.356 27.3892C207.132 27.1203 207.02 26.8065 207.02 26.448C207.02 26.0895 207.132 25.7757 207.356 25.5068C207.625 25.2379 207.983 25.1259 208.432 25.1707C210.404 25.3948 212.308 25.5068 214.146 25.5068C215.715 25.5068 216.813 25.4396 217.44 25.3051C218.112 25.1259 218.717 24.8121 219.255 24.364C220.196 23.5572 221.025 23.1539 221.743 23.1539C222.549 23.1539 223.401 23.6693 224.297 24.7001C224.701 25.1035 224.902 25.5292 224.902 25.9774C224.902 26.3808 224.678 26.7169 224.23 26.9858C223.827 27.2099 223.199 27.3444 222.348 27.3892L219.726 27.4564C218.964 27.5012 218.381 27.7253 217.978 28.1287C217.574 28.532 217.373 29.0923 217.373 29.8094V31.49C217.373 32.2968 217.552 32.9466 217.911 33.4396C218.269 33.8878 218.717 34.0222 219.255 33.843C219.793 33.7085 220.308 33.3948 220.801 32.9018C221.743 32.0951 222.594 31.6917 223.356 31.6917C224.387 31.6917 225.44 32.2968 226.516 33.5068C226.874 33.955 227.053 34.336 227.053 34.6497C227.053 35.0531 226.807 35.4116 226.314 35.7253C225.866 35.9942 225.194 36.1511 224.297 36.1959L219.726 36.2632C219.009 36.2632 218.426 36.4648 217.978 36.8682C217.574 37.2716 217.373 37.8542 217.373 38.6161V51.3892C217.373 52.0167 217.507 52.5321 217.776 52.9355C218.09 53.294 218.493 53.4733 218.986 53.4733C219.39 53.4733 219.771 53.3837 220.129 53.2044C222.415 52.2184 224.499 51.0755 226.381 49.7758C226.695 49.5965 226.964 49.5069 227.188 49.5069C227.591 49.5069 227.793 49.7086 227.793 50.1119C227.793 50.4705 227.569 50.8514 227.121 51.2548C224.835 53.2716 221.698 55.266 217.709 57.238C213.72 59.21 209.911 60.6666 206.28 61.6078C205.16 61.8767 204.734 62.4817 205.003 63.4229C205.048 63.5125 205.07 63.647 205.07 63.8263C205.07 64.2296 204.913 64.4313 204.6 64.4313C204.376 64.4313 204.107 64.3417 203.793 64.1624ZM231.827 26.3808C231.827 25.8878 232.163 25.6413 232.835 25.6413C233.642 25.6413 234.292 25.7533 234.785 25.9774C235.322 26.2015 235.86 26.4928 236.398 26.8514C236.936 27.2099 237.317 27.3892 237.541 27.3892H248.768C249.171 27.3892 249.552 27.2995 249.911 27.1203C250.314 26.8962 250.673 26.6497 250.986 26.3808C251.255 26.1567 251.547 25.955 251.86 25.7757C252.174 25.5516 252.488 25.4396 252.801 25.4396C253.294 25.4396 253.922 25.6637 254.684 26.1119C255.491 26.56 256.185 27.0754 256.768 27.6581C257.351 28.2407 257.642 28.7113 257.642 29.0699C257.642 29.3836 257.575 29.6301 257.44 29.8094C257.306 29.9438 257.104 30.1231 256.835 30.3472C256.477 30.6161 256.185 30.9074 255.961 31.2211C255.782 31.5348 255.692 32.0054 255.692 32.6329V44.7338C255.692 45.5853 255.379 46.2576 254.751 46.7506C254.124 47.2436 253.429 47.4901 252.667 47.4901C252.04 47.4901 251.636 47.3108 251.457 46.9523C251.278 46.5489 251.188 46.0335 251.188 45.406C251.188 44.1511 250.762 43.3668 249.911 43.0531L249.373 42.9186C248.97 42.9186 248.656 43.0755 248.432 43.3892C248.208 43.7029 248.096 44.1063 248.096 44.5993V54.9523C248.096 56.6106 248.208 57.8879 248.432 58.7842C248.701 59.6806 249.126 60.2632 249.709 60.5321C250.561 60.9803 252.241 61.2044 254.751 61.2044C256.589 61.2044 257.911 61.0924 258.717 60.8683C260.062 60.5097 260.914 59.7926 261.272 58.717C261.496 58.0895 261.608 57.0139 261.608 55.4901L261.541 53.0699C261.541 52.5321 261.631 52.1287 261.81 51.8598C261.989 51.5461 262.213 51.3892 262.482 51.3892C262.751 51.3892 262.975 51.5461 263.154 51.8598C263.334 52.1287 263.423 52.5545 263.423 53.1372L263.356 55.0195C263.356 56.4537 263.535 57.3725 263.894 57.7758C264.252 58.224 264.521 58.6274 264.701 58.9859C264.925 59.3445 265.037 59.7254 265.037 60.1288C265.037 61.7422 264.185 62.9075 262.482 63.6246C260.869 64.3417 258.292 64.7002 254.751 64.7002C253.362 64.7002 251.995 64.6106 250.65 64.4313C249.306 64.2968 248.23 64.1176 247.423 63.8935C245.855 63.4005 244.846 62.5714 244.398 61.4061C243.995 60.2856 243.793 58.6946 243.793 56.633V45.1371C243.793 44.3752 243.591 43.7926 243.188 43.3892C242.785 42.9859 242.202 42.7842 241.44 42.7842H238.482C237.72 42.7842 237.138 42.9635 236.734 43.322C236.331 43.6357 236.129 44.1063 236.129 44.7338C236.129 45.5405 235.815 46.2128 235.188 46.7506C234.561 47.2436 233.888 47.4901 233.171 47.4901C232.275 47.4901 231.827 46.9747 231.827 45.9439V26.3808ZM236.129 31.5573C236.129 32.3192 236.331 32.9242 236.734 33.3724C237.138 33.7758 237.698 33.9774 238.415 33.9774L249.104 34.0447C250.628 34.0447 251.39 33.2155 251.39 31.5573C251.39 30.7953 251.188 30.2127 250.785 29.8094C250.381 29.406 249.799 29.2043 249.037 29.2043H238.482C237.765 29.2043 237.182 29.406 236.734 29.8094C236.331 30.2127 236.129 30.7953 236.129 31.5573ZM236.129 38.5489C236.129 39.266 236.331 39.8486 236.734 40.2968C237.182 40.7001 237.765 40.9018 238.482 40.9018L249.037 40.969C249.799 40.969 250.381 40.7674 250.785 40.364C251.188 39.9158 251.39 39.3108 251.39 38.5489C251.39 37.787 251.21 37.2043 250.852 36.801C250.493 36.3976 250 36.1959 249.373 36.1959L238.415 36.2632C237.698 36.2632 237.138 36.4648 236.734 36.8682C236.331 37.2716 236.129 37.8318 236.129 38.5489ZM218.717 50.1119C219.121 49.35 219.502 48.3864 219.86 47.2212C220.219 46.0559 220.555 44.8906 220.869 43.7254C221.182 42.5601 221.384 41.7534 221.474 41.3052C221.653 40.5881 221.967 40.0503 222.415 39.6917C222.908 39.3332 223.468 39.1539 224.096 39.1539C224.768 39.1539 225.418 39.3556 226.045 39.759C226.673 40.1623 227.121 40.6777 227.39 41.3052C227.479 41.5741 227.524 41.7758 227.524 41.9102C227.524 42.3136 227.345 42.5153 226.986 42.5153C226.762 42.5153 226.583 42.4705 226.448 42.3808C226.269 42.2912 226.135 42.2464 226.045 42.2464C225.911 42.2464 225.776 42.336 225.642 42.5153C225.507 42.6945 225.373 42.9186 225.238 43.1875C223.356 46.6834 221.72 49.2828 220.331 50.9859C220.017 51.4341 219.659 51.6582 219.255 51.6582C219.031 51.6582 218.852 51.5909 218.717 51.4565C218.583 51.2772 218.516 51.0755 218.516 50.8514C218.516 50.6273 218.583 50.3808 218.717 50.1119ZM205.137 44.0615C205.003 43.7926 204.936 43.5237 204.936 43.2548C204.936 42.6273 205.16 42.3136 205.608 42.3136C205.922 42.3136 206.213 42.4256 206.482 42.6497C207.692 43.6357 208.745 44.9579 209.642 46.6161C210.583 48.2744 211.143 49.8878 211.322 51.4565C211.412 52.2184 211.143 52.9131 210.516 53.5405C209.933 54.168 209.328 54.4817 208.701 54.4817C207.849 54.4817 207.356 53.9439 207.222 52.8682C206.773 49.0139 206.079 46.0783 205.137 44.0615ZM218.717 62.6162C222.975 61.8094 226.628 60.1288 229.675 57.5741C232.768 54.9747 234.807 51.9271 235.793 48.4313C236.062 47.4901 236.51 46.773 237.138 46.28C237.765 45.787 238.46 45.5405 239.222 45.5405C239.759 45.5405 240.297 45.6749 240.835 45.9439C241.373 46.2128 241.843 46.5713 242.247 47.0195C242.516 47.2884 242.65 47.5797 242.65 47.8934C242.65 48.1623 242.561 48.364 242.381 48.4985C242.202 48.6329 241.978 48.6553 241.709 48.5657C241.619 48.5209 241.507 48.4985 241.373 48.4985C241.194 48.4985 241.059 48.5881 240.97 48.7674C240.88 48.9467 240.79 49.1483 240.701 49.3724C240.656 49.5517 240.611 49.6862 240.566 49.7758C237.877 57.4397 230.818 62.3697 219.39 64.5658C219.255 64.6106 219.053 64.633 218.785 64.633C218.336 64.633 217.955 64.5433 217.642 64.3641C217.373 64.1848 217.238 63.9607 217.238 63.6918C217.238 63.154 217.731 62.7954 218.717 62.6162Z" fill="#1C1C1C"/>
<path d="M167.356 57.6414C166.549 57.731 165.922 57.6862 165.474 57.5069C165.025 57.3277 164.801 57.0812 164.801 56.7674C164.801 56.4537 165.003 56.2072 165.406 56.0279C165.855 55.8039 166.46 55.6918 167.222 55.6918C169.776 55.647 172.241 54.8179 174.616 53.2044C176.992 51.591 178.964 49.4621 180.532 46.8178C182.101 44.1287 183.042 41.238 183.356 38.1455C183.446 37.2492 183.49 36.5769 183.49 36.1287C183.49 33.3052 182.93 30.5713 181.81 27.927C180.689 25.2379 178.964 22.9074 176.633 20.9354C174.348 18.9634 171.546 17.6413 168.23 16.969C167.692 16.8794 167.289 16.9466 167.02 17.1707C166.751 17.35 166.616 17.6637 166.616 18.1119C166.616 18.3808 166.684 18.6945 166.818 19.053C167.625 20.9354 168.028 22.5713 168.028 23.9606C168.028 24.9914 167.849 25.8654 167.49 26.5825L164.129 34.3136C161.395 40.6329 159.199 45.4285 157.541 48.7002C155.927 51.9271 154.291 54.1008 152.633 55.2212C151.737 55.8487 150.908 56.1624 150.146 56.1624C149.294 56.1624 148.532 55.8711 147.86 55.2884C147.188 54.661 146.314 53.675 145.238 52.3305C145.014 52.0167 144.633 51.5461 144.095 50.9187C142.616 49.2604 141.451 47.266 140.6 44.9355C139.748 42.6049 139.322 40.2072 139.322 37.7422C139.322 36.0839 139.524 34.4929 139.927 32.969C140.958 28.9354 142.818 25.5517 145.507 22.8178C148.241 20.039 150.997 18.0222 153.776 16.7673C157.093 15.2883 160.656 14.5488 164.465 14.5488C166.751 14.5488 168.992 14.8401 171.188 15.4228C173.384 16.0054 175.378 16.8345 177.171 17.9102C180.667 19.927 183.401 22.5264 185.373 25.7085C187.345 28.8458 188.331 32.2744 188.331 35.9943C188.331 36.9803 188.264 37.9439 188.129 38.885C187.367 44.3528 185.194 48.7002 181.608 51.9271C178.023 55.1092 173.272 57.0139 167.356 57.6414ZM151.558 49.9103C153.306 48.8346 155.143 46.6162 157.07 43.2548C159.042 39.8934 160.678 36.1287 161.978 31.9606C163.278 27.7477 163.927 23.9382 163.927 20.532C163.927 19.9942 163.883 19.1875 163.793 18.1119C163.703 17.6189 163.502 17.2603 163.188 17.0362C162.874 16.7673 162.448 16.6553 161.911 16.7001C158.953 17.1483 156.196 18.1791 153.642 19.7925C151.087 21.406 148.936 23.378 147.188 25.7085C145.44 28.0391 144.23 30.4816 143.558 33.0363C143.244 34.1567 143.087 35.3668 143.087 36.6665C143.087 38.9074 143.535 41.0587 144.432 43.1203C145.328 45.182 146.404 46.8627 147.658 48.1624C148.913 49.4621 149.989 50.112 150.885 50.112C151.154 50.112 151.378 50.0447 151.558 49.9103Z" fill="#1C1C1C"/>
<path d="M88.8347 61.6079C88.3865 61.6527 88.0279 61.5182 87.759 61.2045C87.5349 60.9356 87.4229 60.6219 87.4229 60.2633C87.4229 59.86 87.5349 59.5238 87.759 59.2549C88.0279 58.986 88.3865 58.874 88.8347 58.9188L90.4481 59.0533C93.2716 59.2325 95.4453 59.3222 96.9691 59.3222H104.835C105.955 59.3222 106.515 58.7619 106.515 57.6415V46.0784C106.515 44.958 105.933 44.3977 104.767 44.3977C102.078 44.3977 99.0532 44.5322 95.6918 44.8011C95.2436 44.8459 94.8851 44.7339 94.6162 44.465C94.3921 44.1512 94.2801 43.8151 94.2801 43.4566C94.2801 43.0532 94.3921 42.7171 94.6162 42.4482C94.8851 42.1793 95.2436 42.0672 95.6918 42.112L97.7759 42.2465C100.017 42.3809 102.37 42.4706 104.835 42.5154C105.955 42.5154 106.515 41.9552 106.515 40.8347V31.2212C106.515 30.1008 105.955 29.5406 104.835 29.5406H99.1204C98.3585 29.5406 97.7759 29.7198 97.3725 30.0784C96.9691 30.3921 96.7675 30.8627 96.7675 31.4901C96.7675 32.2969 96.4537 32.9691 95.8263 33.507C95.1988 34 94.5265 34.2465 93.8095 34.2465C93.3613 34.2465 92.9803 34.112 92.6666 33.8431C92.3977 33.5742 92.2632 33.1932 92.2632 32.7002L92.3305 29.9439C92.3753 29.4957 92.3977 28.8459 92.3977 27.9943L92.4649 3.72536C92.4649 3.23236 92.8011 2.98586 93.4733 2.98586C94.2801 2.98586 94.9299 3.0979 95.4229 3.32199C95.9607 3.54608 96.4985 3.8374 97.0364 4.19594C97.5742 4.55449 97.9551 4.73376 98.1792 4.73376H117.675C118.078 4.73376 118.459 4.64413 118.818 4.46485C119.221 4.24076 119.58 3.99426 119.894 3.72536C120.162 3.50127 120.454 3.29959 120.768 3.12032C121.081 2.89623 121.395 2.78418 121.709 2.78418C122.202 2.78418 122.829 3.00827 123.591 3.45645C124.398 3.90463 125.092 4.42004 125.675 5.00267C126.258 5.58531 126.549 6.0559 126.549 6.41444C126.549 6.72817 126.482 6.97467 126.347 7.15394C126.213 7.28839 126.011 7.46766 125.742 7.69175C125.384 7.96066 125.092 8.25198 124.868 8.56571C124.689 8.87943 124.599 9.35002 124.599 9.97748V31.4901C124.599 32.3417 124.286 33.014 123.658 33.507C123.031 34 122.336 34.2465 121.574 34.2465C120.947 34.2465 120.543 34.0672 120.364 33.7086C120.185 33.3053 120.095 32.7899 120.095 32.1624C120.095 31.3557 119.894 30.7282 119.49 30.2801C119.087 29.7871 118.504 29.5406 117.742 29.5406H112.499C111.378 29.5406 110.818 30.1008 110.818 31.2212V40.8347C110.818 41.3725 110.975 41.7983 111.289 42.112C111.602 42.3809 112.05 42.493 112.633 42.4482C113.754 42.3585 114.515 42.1793 114.919 41.9103C115.367 41.6414 115.972 41.126 116.734 40.3641C117.72 39.3781 118.706 38.8851 119.692 38.8851C120.812 38.8851 122.045 39.6022 123.389 41.0364C123.882 41.619 124.129 42.1793 124.129 42.7171C124.129 43.2101 123.927 43.6134 123.524 43.9272C123.12 44.2409 122.538 44.3977 121.776 44.3977L112.499 44.465C111.378 44.465 110.818 45.0252 110.818 46.1457V57.6415C110.818 58.7619 111.378 59.3222 112.499 59.3222H118.885C119.782 59.3222 120.521 59.1205 121.104 58.7171C121.731 58.3586 122.381 57.8432 123.053 57.1709C124.039 56.1849 125.025 55.6919 126.011 55.6919C127.132 55.6919 128.364 56.409 129.709 57.8432C130.202 58.4258 130.448 58.986 130.448 59.5238C130.448 60.0168 130.247 60.4202 129.843 60.7339C129.44 61.0477 128.857 61.2045 128.095 61.2045L118.885 61.2717L96.9691 61.2045C95.1764 61.2045 93.0027 61.2942 90.4481 61.4734L88.8347 61.6079ZM66.7169 31.2212C66.2688 31.2661 65.9102 31.154 65.6413 30.8851C65.4172 30.5714 65.3052 30.2352 65.3052 29.8767C65.3052 29.4733 65.4172 29.1372 65.6413 28.8683C65.9102 28.5994 66.2688 28.4873 66.7169 28.5322L70.0783 28.7338C70.3024 28.7787 71.3332 28.8459 73.1707 28.9355C74.2912 28.9355 74.8514 28.3753 74.8514 27.2548V11.3892C74.8514 10.2688 74.2688 9.70857 73.1035 9.70857L69.6077 9.91025L66.7169 10.1119C66.2688 10.1567 65.9102 10.0447 65.6413 9.7758C65.4172 9.46207 65.3052 9.12593 65.3052 8.76739C65.3052 8.36403 65.4172 8.02789 65.6413 7.75898C65.9102 7.49007 66.2688 7.37803 66.7169 7.42285L70.28 7.69175C72.0727 7.78139 73.1483 7.82621 73.5069 7.82621H79.0867C79.9831 7.82621 80.7226 7.64694 81.3052 7.28839C81.9327 6.88503 82.5825 6.34721 83.2548 5.67494C84.2408 4.68895 85.2268 4.19594 86.2128 4.19594C87.3333 4.19594 88.5657 4.91303 89.9103 6.34721C90.4033 6.92985 90.6498 7.49007 90.6498 8.02789C90.6498 8.52089 90.4481 8.92425 90.0447 9.23798C89.6414 9.5517 89.0587 9.70857 88.2968 9.70857L80.8346 9.7758C79.7142 9.7758 79.154 10.336 79.154 11.4565V27.0532C79.154 27.5462 79.266 27.9495 79.4901 28.2632C79.7142 28.5322 80.0055 28.6666 80.364 28.6666C80.4985 28.6666 80.7002 28.6218 80.9691 28.5322C81.5965 28.2632 82.3584 27.6806 83.2548 26.7843C84.2408 25.7983 85.2268 25.3053 86.2128 25.3053C87.3333 25.3053 88.5657 26.0223 89.9103 27.4565C90.4033 28.0392 90.6498 28.5994 90.6498 29.1372C90.6498 29.6302 90.4481 30.0336 90.0447 30.3473C89.6414 30.661 89.0587 30.8179 88.2968 30.8179L80.8346 30.8851C79.7142 30.8851 79.154 31.4453 79.154 32.5658V46.9524C79.154 47.9384 79.5125 48.4314 80.2296 48.4314C80.4985 48.4314 80.7898 48.3417 81.1035 48.1625C83.1652 47.2213 85.5629 45.7871 88.2968 43.8599C88.5209 43.6807 88.7898 43.591 89.1036 43.591C89.3277 43.591 89.5069 43.6807 89.6414 43.8599C89.8207 44.0392 89.9103 44.2409 89.9103 44.465C89.9103 44.7787 89.731 45.1148 89.3725 45.4734C86.5938 47.8039 83.6134 49.9104 80.4313 51.7927C77.294 53.6303 74.224 55.1093 71.2212 56.2297C70.0111 56.6779 69.5853 57.2381 69.9438 57.9104C70.0335 58.0448 70.0783 58.2241 70.0783 58.4482C70.0783 58.8964 69.8542 59.1205 69.406 59.1205C69.3164 59.1205 69.0923 59.0757 68.7338 58.986C67.7926 58.6275 67.0755 58.1345 66.5825 57.507C66.0895 56.8348 65.843 56.1401 65.843 55.423C65.843 54.7059 66.0895 54.0784 66.5825 53.5406C67.1203 52.958 67.8822 52.5546 68.8682 52.3305C70.9747 51.8375 72.4985 51.4342 73.4397 51.1205C74.3808 50.8515 74.8514 50.2241 74.8514 49.2381V32.4986C74.8514 31.9607 74.6946 31.5574 74.3808 31.2885C74.0671 30.9747 73.6189 30.8179 73.0363 30.8179C71.8262 30.8179 70.6161 30.8851 69.406 31.0196L66.7169 31.2212ZM96.7675 13.675C96.7675 14.4369 96.9691 15.0195 97.3725 15.4229C97.7759 15.8262 98.3361 16.0279 99.0532 16.0279H104.835C105.955 16.0279 106.515 15.4677 106.515 14.3472V8.22957C106.515 7.10912 105.955 6.5489 104.835 6.5489H99.1204C98.4033 6.5489 97.8207 6.75058 97.3725 7.15394C96.9691 7.5573 96.7675 8.13994 96.7675 8.90184V13.675ZM110.818 14.4145C110.818 15.5349 111.378 16.0951 112.499 16.0951H118.011C118.728 16.0951 119.289 15.8935 119.692 15.4901C120.095 15.0867 120.297 14.5041 120.297 13.7422V8.90184C120.297 8.13994 120.095 7.5573 119.692 7.15394C119.289 6.75058 118.706 6.5489 117.944 6.5489H112.499C111.378 6.5489 110.818 7.10912 110.818 8.22957V14.4145ZM110.818 26.0447C110.818 27.1652 111.378 27.7254 112.499 27.7254H117.944C118.706 27.7254 119.289 27.5237 119.692 27.1204C120.095 26.6722 120.297 26.0896 120.297 25.3725V20.5994C120.297 19.8374 120.118 19.2548 119.759 18.8514C119.401 18.4481 118.908 18.2464 118.28 18.2464H112.499C111.378 18.2464 110.818 18.8066 110.818 19.9271V26.0447ZM96.7675 25.3053C96.7675 26.0223 96.9691 26.605 97.3725 27.0532C97.8207 27.4565 98.4033 27.6582 99.1204 27.6582H104.835C105.955 27.6582 106.515 27.098 106.515 25.9775V19.9943C106.515 18.8739 105.955 18.3136 104.835 18.3136H99.0532C98.3361 18.3136 97.7759 18.5153 97.3725 18.9187C96.9691 19.322 96.7675 19.9047 96.7675 20.6666V25.3053Z" fill="#1C1C1C"/>
<path d="M15.3555 12.7338C13.5627 12.7338 11.3891 12.8235 8.83443 13.0028L7.22098 13.1372C6.7728 13.182 6.41425 13.07 6.14535 12.8011C5.92125 12.4873 5.80921 12.1512 5.80921 11.7927C5.80921 11.3893 5.92125 11.0532 6.14535 10.7843C6.41425 10.5153 6.7728 10.4033 7.22098 10.4481L8.83443 10.5826C11.658 10.7619 13.8316 10.8515 15.3555 10.8515H26.5824C27.7028 10.8515 28.2631 10.2913 28.2631 9.17081V4.06155C28.2631 2.9411 28.5768 2.11196 29.2042 1.57415C29.8765 0.991513 30.7056 0.700195 31.6916 0.700195C32.4984 0.700195 33.1706 0.857058 33.7085 1.17078C34.2463 1.48451 34.5152 1.79824 34.5152 2.11196C34.5152 2.47051 34.1566 2.67219 33.4395 2.71701C33.1706 2.76183 32.9465 2.91869 32.7673 3.1876C32.6328 3.45651 32.5656 3.74782 32.5656 4.06155V9.17081C32.5656 10.2913 33.1258 10.8515 34.2463 10.8515H45.6749C46.5712 10.8515 47.3107 10.6722 47.8934 10.3137C48.5208 9.91031 49.1707 9.37249 49.843 8.70022C50.829 7.71422 51.8374 7.22122 52.8682 7.22122C53.4508 7.22122 54.0334 7.40049 54.6161 7.75904C55.2884 8.20722 55.9158 8.74504 56.4984 9.37249C56.9914 9.95513 57.2379 10.5154 57.2379 11.0532C57.2379 11.5462 57.0363 11.9495 56.6329 12.2633C56.2295 12.577 55.6469 12.7338 54.885 12.7338L34.2463 12.8011C33.1258 12.8011 32.5656 13.3613 32.5656 14.4817V16.9691C32.5656 18.0896 33.1258 18.6498 34.2463 18.6498H36.9354C37.3387 18.6498 37.7197 18.5602 38.0782 18.3809C38.4816 18.1568 38.8401 17.9103 39.1538 17.6414C39.4228 17.4173 39.7141 17.2157 40.0278 17.0364C40.3415 16.8123 40.6553 16.7002 40.969 16.7002C41.7757 16.7002 42.7841 17.0812 43.9942 17.8431C45.2043 18.5602 45.8093 19.1876 45.8093 19.7255C45.8093 20.2633 45.5404 20.7563 45.0026 21.2045C44.6441 21.6078 44.3527 22.0112 44.1287 22.4145C43.9494 22.7731 43.8598 23.2661 43.8598 23.8935V45.0028C43.8598 45.8544 43.546 46.5267 42.9186 47.0197C42.2911 47.5127 41.5964 47.7592 40.8345 47.7592C40.2519 47.7592 39.8485 47.6023 39.6244 47.2886C39.4452 46.9748 39.3555 46.6611 39.3555 46.3474C39.3555 45.5407 39.1538 44.9132 38.7505 44.465C38.3471 43.972 37.7645 43.7255 37.0026 43.7255H23.4227C22.6608 43.7255 22.0782 43.9048 21.6748 44.2634C21.2714 44.5771 21.0698 45.0477 21.0698 45.6751C21.0698 46.1681 20.7336 46.6387 20.0614 47.0869C19.4339 47.5351 18.784 47.7592 18.1118 47.7592C17.6636 47.7592 17.2826 47.6247 16.9689 47.3558C16.7 47.0869 16.5655 46.7059 16.5655 46.2129L16.6328 43.86C16.6776 43.5014 16.7 42.9412 16.7 42.1793L16.7672 17.6414C16.7672 17.1484 17.1034 16.9019 17.7756 16.9019C18.5824 16.9019 19.2322 17.014 19.7252 17.2381C20.263 17.4621 20.8009 17.7535 21.3387 18.112C21.8765 18.4706 22.2574 18.6498 22.4815 18.6498H26.5824C27.7028 18.6498 28.2631 18.0896 28.2631 16.9691V14.4145C28.2631 13.2941 27.7028 12.7338 26.5824 12.7338H15.3555ZM21.0698 23.8935C21.0698 24.6106 21.2714 25.1933 21.6748 25.6414C22.123 26.0448 22.7056 26.2465 23.4227 26.2465H37.2043C37.9662 26.2465 38.5488 26.0448 38.9522 25.6414C39.3555 25.1933 39.5572 24.6106 39.5572 23.8935V22.8179C39.5572 22.056 39.3555 21.4734 38.9522 21.07C38.5488 20.6666 37.9662 20.465 37.2043 20.465H23.4227C22.7056 20.465 22.123 20.6666 21.6748 21.07C21.2714 21.4734 21.0698 22.056 21.0698 22.8179V23.8935ZM21.0698 31.5574C21.0698 32.2745 21.2714 32.8572 21.6748 33.3053C22.123 33.7087 22.7056 33.9104 23.4227 33.9104H37.2043C37.9662 33.9104 38.5488 33.7087 38.9522 33.3053C39.3555 32.8572 39.5572 32.2745 39.5572 31.5574V30.6163C39.5572 29.8543 39.3555 29.2717 38.9522 28.8683C38.5488 28.465 37.9662 28.2633 37.2043 28.2633H23.4227C22.7056 28.2633 22.123 28.465 21.6748 28.8683C21.2714 29.2717 21.0698 29.8543 21.0698 30.6163V31.5574ZM21.0698 39.4902C21.0698 40.2073 21.2714 40.79 21.6748 41.2381C22.123 41.6415 22.7056 41.8432 23.4227 41.8432L37.2043 41.9104C37.9662 41.9104 38.5488 41.7087 38.9522 41.3054C39.3555 40.8572 39.5572 40.2745 39.5572 39.5575V38.2801C39.5572 37.5182 39.3555 36.9356 38.9522 36.5322C38.5488 36.1289 37.9662 35.9272 37.2043 35.9272H23.4227C22.7056 35.9272 22.123 36.1289 21.6748 36.5322C21.2714 36.9356 21.0698 37.5182 21.0698 38.2801V39.4902ZM10.2462 51.6583C8.45348 51.6583 6.2798 51.748 3.72517 51.9272L2.11172 52.0617C1.66354 52.1065 1.305 51.9945 1.03609 51.7256C0.811996 51.4118 0.699951 51.0757 0.699951 50.7172C0.699951 50.3138 0.811996 49.9777 1.03609 49.7087C1.305 49.4398 1.66354 49.3278 2.11172 49.3726L3.72517 49.5071C6.54871 49.6863 8.72238 49.776 10.2462 49.776H49.1035C49.9998 49.776 50.7393 49.5967 51.322 49.2382C51.9494 48.8348 52.5993 48.297 53.2715 47.6247C54.2575 46.6387 55.2659 46.1457 56.2968 46.1457C56.8794 46.1457 57.462 46.325 58.0447 46.6835C58.7169 47.1317 59.3444 47.6695 59.927 48.297C60.42 48.8796 60.6665 49.4398 60.6665 49.9777C60.6665 50.4707 60.4648 50.874 60.0615 51.1877C59.6581 51.5015 59.0755 51.6583 58.3136 51.6583H10.2462ZM6.75039 62.213C8.7672 61.6303 11.277 60.5547 14.2798 58.9861C17.3275 57.4175 19.658 55.9609 21.2714 54.6163C21.8989 54.0337 22.728 53.7424 23.7588 53.7424C24.6552 53.7424 25.4395 54.0561 26.1118 54.6836C26.8289 55.2662 27.2322 56.1177 27.3219 57.2382V57.3726C27.3219 57.6864 27.2547 57.9329 27.1202 58.1121C27.0306 58.2914 26.8961 58.381 26.7168 58.381C26.5376 58.381 26.3583 58.2914 26.179 58.1121C25.9549 57.888 25.7084 57.776 25.4395 57.776C25.2602 57.776 24.9689 57.888 24.5656 58.1121C24.1622 58.2914 23.8037 58.4707 23.4899 58.6499C21.249 59.6808 18.4031 60.734 14.9521 61.8096C11.5011 62.8853 8.78961 63.5799 6.81762 63.8937H6.41425C5.83162 63.8937 5.5403 63.692 5.5403 63.2886C5.5403 63.1093 5.65235 62.9077 5.87644 62.6836C6.10053 62.4595 6.39185 62.3026 6.75039 62.213ZM35.5908 56.4315C35.2323 56.3866 34.9634 56.2746 34.7841 56.0953C34.6048 55.8712 34.5152 55.6247 34.5152 55.3558C34.5152 55.0869 34.6272 54.8628 34.8513 54.6836C35.0754 54.5043 35.3891 54.4146 35.7925 54.4146C37.1819 54.4146 39.0866 54.6611 41.5068 55.1541C43.927 55.6023 46.2575 56.2522 48.4984 57.1037C50.7393 57.9553 52.3752 58.9189 53.406 59.9945C54.0334 60.6219 54.3472 61.3166 54.3472 62.0785C54.3472 62.6612 54.1231 63.1542 53.6749 63.5575C53.2715 63.9609 52.7561 64.1626 52.1287 64.1626C51.4116 64.1626 50.6721 63.8937 49.9102 63.3558C47.4452 61.6079 44.9578 60.1289 42.448 58.9189C39.9382 57.7088 37.6524 56.8796 35.5908 56.4315Z" fill="#1C1C1C"/>
</svg>
