<?xml version="1.0" encoding="utf-8"?>
<!-- Generator: Adobe Illustrator 27.4.1, SVG Export Plug-In . SVG Version: 6.00 Build 0)  -->
<svg version="1.1" id="レイヤー_1" xmlns="http://www.w3.org/2000/svg" xmlns:xlink="http://www.w3.org/1999/xlink" x="0px"
	 y="0px" viewBox="0 0 234.5 303.4" style="enable-background:new 0 0 234.5 303.4;" xml:space="preserve">
<style type="text/css">
	.st0{fill:#4D4D4D;}
</style>
<g>
	<path class="st0" d="M232.3,52c-2.2-5.3-5.9-9.8-10.6-12.9c-4.7-3.2-10.4-5-16.4-5h-25.3v-4.4h-36.7c0.2-1.2,0.3-2.4,0.3-3.6
		c0-14.4-11.8-26.2-26.2-26.2c-14.4,0-26.2,11.8-26.2,26.2c0,1.2,0.1,2.5,0.3,3.6H54.7v4.4H29.4c-4,0-7.9,0.9-11.4,2.3
		c-5.3,2.2-9.8,5.9-13,10.6c-3.2,4.7-5,10.4-5,16.4v210.6c0,4,0.9,7.9,2.3,11.4c2.2,5.3,5.9,9.8,10.6,12.9c4.7,3.1,10.4,5,16.4,5
		h175.8c4,0,7.9-0.8,11.4-2.3c5.3-2.2,9.8-5.9,12.9-10.6c3.2-4.7,5-10.4,5-16.4V63.5C234.5,59.5,233.6,55.6,232.3,52L232.3,52z
		 M117.3,16.4c5.3,0,9.7,4.4,9.7,9.7c0,1.3-0.3,2.5-0.7,3.6h-18c-0.4-1.1-0.7-2.3-0.7-3.6C107.6,20.8,112,16.4,117.3,16.4z
		 M217.1,274.2c0,1.6-0.3,3.2-0.9,4.6c-0.9,2.1-2.4,3.9-4.3,5.2c-1.9,1.3-4.1,2.1-6.6,2.1H29.4c-1.6,0-3.2-0.3-4.6-0.9
		c-2.1-0.9-3.9-2.4-5.2-4.3s-2.1-4.1-2.1-6.6V63.5c0-1.6,0.3-3.2,0.9-4.6c0.9-2.1,2.4-3.9,4.3-5.2s4.1-2.1,6.6-2.1h25.3v3.6
		c0,6.9,5.6,12.4,12.4,12.4h100.5c6.9,0,12.4-5.6,12.4-12.4v-3.6h25.3c1.6,0,3.2,0.3,4.6,0.9c2.1,0.9,3.9,2.4,5.2,4.3
		c1.3,1.9,2.1,4.1,2.1,6.6L217.1,274.2L217.1,274.2z"/>
	<rect x="53.9" y="102.6" class="st0" width="126.7" height="14.6"/>
	<rect x="53.9" y="142.6" class="st0" width="126.7" height="14.6"/>
	<rect x="53.9" y="182.6" class="st0" width="126.7" height="14.6"/>
	<rect x="117.3" y="233.6" class="st0" width="63.4" height="14.6"/>
</g>
</svg>
