<svg width="329" height="306" viewBox="0 0 329 306" fill="none" xmlns="http://www.w3.org/2000/svg">
<rect x="13" width="306" height="306" rx="30" fill="#6F6F6F"/>
<path d="M60.1169 121.146C58.5905 121.733 56.8642 122.352 54.8117 122.981C50.2119 124.479 40.739 127.171 33.8752 130.172C27.3587 133.036 23.1244 136.607 22.3293 141.341C21.4493 146.58 25.9472 150.71 35.9195 152.385C42.736 153.53 51.3419 154.067 56.477 153.632L55.4597 159.302C50.5882 159.327 43.1501 158.791 35.2606 157.466C23.3949 155.473 15.4049 150.497 16.9952 141.029C18.1403 134.213 23.6489 129.622 31.9236 125.95C39.0823 122.739 48.6289 119.995 53.1237 118.349C55.1343 117.583 56.6606 116.996 58.1663 116.146L60.1169 121.146ZM30.11 104.294C31.6562 112.861 34.2441 121.408 36.2886 127.008L31.5621 128.874C29.2126 123.158 26.8569 114.001 24.7634 105.603L30.11 104.294ZM95.2989 114.531C93.1889 118.979 90.5584 127.298 89.4375 131.652C93.1173 125.586 101.007 118.799 109.022 120.146C117.354 121.545 121.992 131.021 119.766 144.275C116.829 161.758 104.479 167.666 88.4127 167.887L86.1465 162.834C100.256 163.063 111.855 159.3 114.516 143.458C116.191 133.486 114.055 125.729 107.428 124.616C99.5384 123.29 90.2874 133.547 88.1411 141.688C87.4226 144.034 87.0515 146.243 86.9632 149.473L81.9766 149.025C82.0639 146.573 82.342 142.986 83.0312 138.883C84.0384 132.887 86.7961 123.811 88.4229 118.762C88.9934 116.911 89.4165 115.165 89.8396 113.419L95.2989 114.531ZM173.226 127.362C172.92 128.413 172.581 129.655 172.2 131.537C171.65 134.041 170.229 142.498 169.339 147.8C167.939 156.131 167.03 167.336 166.32 171.564C165.578 175.982 161.922 179.976 153.717 178.598C144.628 177.071 140.183 173.014 141.211 166.892C142.176 161.149 148.314 158.221 157.402 159.748C170.72 161.985 179.925 170.929 184.117 175.722L180.461 179.716C175.661 173.523 167.38 165.642 156.145 163.755C150.086 162.737 146.475 164.532 145.987 167.435C145.489 170.401 147.59 172.961 153.838 174.01C157.499 174.625 160.772 174.072 161.514 169.654C162.33 164.794 163.735 152.57 164.668 147.016C165.622 141.335 166.735 134.708 167.478 130.29C167.658 129.217 167.913 127.313 167.861 126.46L173.226 127.362ZM147.971 130.128C151.883 131.564 159.666 133.52 163.832 134.22C171.848 135.567 180.401 136.419 188.828 136.472L188.054 141.08C180.785 140.702 171.621 140.007 163.164 138.586C158.809 137.854 151.141 135.982 147.249 134.809L147.971 130.128ZM145.397 143.519C149.762 144.966 156.883 146.616 161.048 147.316C170.2 148.853 178.7 149.632 187.107 149.811L186.312 154.545C177.548 154.176 169.773 153.324 160.306 151.734C155.951 151.003 149.061 149.521 144.665 148.263L145.397 143.519ZM225.281 164.79C222.476 161.009 220.039 158.523 215.431 157.749C210.508 156.922 205.581 159.599 202.092 164.14L198.014 160.989C203.273 154.409 209.715 151.597 216.342 152.711C222.086 153.675 225.796 156.7 229.483 161.797C232.277 165.641 234.725 168.064 239.332 168.838C244.255 169.665 249.183 166.988 252.671 162.447L256.75 165.599C251.491 172.178 245.048 174.99 238.421 173.877C232.678 172.912 228.967 169.887 225.281 164.79ZM302.918 149.213C302.665 149.949 302.062 152.378 301.935 153.136C301.056 157.207 299.136 169.409 298.351 174.469L293.968 171.202C294.434 168.425 296.481 155.854 296.875 152.351C297.035 150.625 297.142 148.826 297.112 148.237L302.918 149.213ZM267.856 152.408C276.461 153.724 292.336 155.807 302.055 157.439C309.756 158.733 317.582 160.047 320.538 160.609L319.69 165.269C316.187 164.486 310.528 163.405 301.25 161.847C290.394 160.023 276.813 158.196 267.166 157.289L267.856 152.408ZM297.917 176.278C296.497 184.736 291.873 188.307 286.13 187.342C280.828 186.452 276.341 181.869 277.497 174.989C278.546 168.741 284.506 164.94 290.502 165.947C297.824 167.177 300.636 173.23 299.417 180.489C297.975 189.072 292.219 197.84 276.844 199.735L273.305 194.922C285.248 194.138 292.882 189.645 294.631 179.23C295.585 173.55 293.211 170.685 289.803 170.113C286.458 169.551 282.93 171.619 282.241 175.721C281.573 179.698 284.158 182.468 287.629 183.051C291.542 183.709 294.618 180.851 294.743 173.928L297.917 176.278Z" fill="white"/>
</svg>
