<svg width="146" height="117" viewBox="0 0 146 117" fill="none" xmlns="http://www.w3.org/2000/svg">
<rect width="146.008" height="117" rx="14" fill="#373434"/>
<path d="M1.93408 15.8578C1.93408 8.04012 8.3304 1.6438 16.1481 1.6438H129.861C133.63 1.6438 137.246 3.14135 139.911 5.807C142.577 8.47265 144.075 12.088 144.075 15.8578V101.142C144.075 104.912 142.577 108.527 139.911 111.193C137.246 113.859 133.63 115.356 129.861 115.356H16.1481C12.3783 115.356 8.76293 113.859 6.09728 111.193C3.43163 108.527 1.93408 104.912 1.93408 101.142V15.8578ZM80.1114 79.8211L58.7903 58.5L16.1481 101.142H129.861L94.3254 65.607L80.1114 79.8211ZM108.539 51.393C112.309 51.393 115.925 49.8954 118.59 47.2298C121.256 44.5641 122.754 40.9487 122.754 37.1789C122.754 33.4091 121.256 29.7937 118.59 27.1281C115.925 24.4624 112.309 22.9649 108.539 22.9649C104.77 22.9649 101.154 24.4624 98.4886 27.1281C95.823 29.7937 94.3254 33.4091 94.3254 37.1789C94.3254 40.9487 95.823 44.5641 98.4886 47.2298C101.154 49.8954 104.77 51.393 108.539 51.393Z" fill="white"/>
</svg>
