<?xml version="1.0" encoding="utf-8"?>
<!-- Generator: Adobe Illustrator 27.4.1, SVG Export Plug-In . SVG Version: 6.00 Build 0)  -->
<svg version="1.1" id="レイヤー_1" xmlns="http://www.w3.org/2000/svg" xmlns:xlink="http://www.w3.org/1999/xlink" x="0px"
	 y="0px" viewBox="0 0 164.3 308" style="enable-background:new 0 0 164.3 308;" xml:space="preserve">
<style type="text/css">
	.st0{fill:#FFFFFF;}
</style>
<path class="st0" d="M20.5,61.6c0-16.3,6.5-32,18-43.6C50.1,6.5,65.8,0,82.1,0c16.3,0,32,6.5,43.6,18c11.6,11.6,18,27.2,18,43.6
	v109.9c10.5,11.9,17.3,26.5,19.6,42.1c2.4,15.6,0.1,31.6-6.4,46c-6.5,14.4-17,26.6-30.3,35.2c-13.3,8.6-28.7,13.1-44.6,13.1
	s-31.3-4.6-44.6-13.1c-13.3-8.6-23.8-20.8-30.3-35.2c-6.5-14.4-8.7-30.4-6.4-46c2.4-15.6,9.2-30.2,19.6-42.1V61.6z M82.1,30.8
	c-8.2,0-16,3.2-21.8,9c-5.8,5.8-9,13.6-9,21.8v122.7l-4.7,4.5C39.2,195.9,34.1,205,32,215c-2.2,10-1.3,20.4,2.6,29.9
	c3.8,9.5,10.4,17.6,18.9,23.4s18.5,8.8,28.7,8.8c10.2,0,20.3-3.1,28.7-8.8c8.5-5.7,15.1-13.9,18.9-23.4c3.8-9.5,4.7-19.9,2.6-29.9
	c-2.2-10-7.3-19.2-14.7-26.2l-4.7-4.5V61.6c0-8.2-3.2-16-9-21.8C98.1,34,90.3,30.8,82.1,30.8z M92.4,112.9c0-2.7-1.1-5.3-3-7.3
	c-1.9-1.9-4.5-3-7.3-3c-2.7,0-5.3,1.1-7.3,3c-1.9,1.9-3,4.5-3,7.3v83.9c-6.8,2.4-12.6,7.2-16.3,13.5c-3.7,6.3-5,13.6-3.8,20.8
	c1.2,7.2,4.9,13.7,10.5,18.3c5.6,4.7,12.6,7.3,19.9,7.3c7.3,0,14.3-2.6,19.9-7.3c5.6-4.7,9.3-11.2,10.5-18.3
	c1.2-7.2-0.1-14.5-3.8-20.8c-3.7-6.3-9.4-11-16.3-13.5V112.9z"/>
</svg>
