<svg width="306" height="306" viewBox="0 0 306 306" fill="none" xmlns="http://www.w3.org/2000/svg">
<rect width="306" height="306" rx="30" fill="#6F6F6F"/>
<path d="M82.3547 128.104C85.8887 129.087 89.2651 129.849 92.989 130.474C100.563 131.746 108.432 132.419 115.019 132.228L114.202 137.088C107.321 137.1 99.5995 136.322 92.0888 135.06C88.4912 134.456 85.241 133.715 81.6227 132.848L82.3547 128.104ZM106.343 120.517C105.942 121.747 105.593 123.052 105.328 124.24C104.81 126.554 103.994 131.025 103.368 134.749C101.736 144.469 101.039 154.411 99.9362 160.975C99.0669 166.15 95.8203 170.796 87.2997 169.365C78.9053 167.955 74.8072 163.762 75.7614 158.082C76.652 152.78 82.0224 149.399 90.2905 150.788C100.957 152.58 107.44 159.185 111.936 164.872L108.523 168.582C102.871 161.273 97.2808 155.921 89.2651 154.574C84.5314 153.779 80.8995 155.311 80.3906 158.34C79.8393 161.622 82.7088 163.856 87.19 164.609C92.5548 165.51 94.5255 163.051 95.2253 158.885C95.9886 154.341 97.1614 142.337 98.5609 134.006C99.2818 129.714 99.8973 125.664 100.331 123.466C100.512 122.393 100.661 120.731 100.663 119.563L106.343 120.517ZM75.1528 115.732C74.5938 116.741 73.6865 118.665 73.3063 119.77C71.058 125.427 67.0653 137.606 65.8778 144.675C65.3583 147.768 65.113 150.387 65.0984 153.565C66.5222 150.884 68.6837 147.288 70.2545 144.891L72.503 147.346C70.1829 151.499 66.7662 157.544 65.6155 160.531C65.2778 161.383 64.9501 162.561 64.886 163.329C64.78 163.96 64.7578 164.865 64.7042 165.569L60.1594 165.195C59.7236 160.45 59.7538 153.316 61.1851 144.795C62.7436 135.517 66.8515 123.812 68.4888 118.701C68.9852 117.292 69.4502 115.682 69.6834 114.294L75.1528 115.732ZM111.58 122.954C111.23 125.037 112.595 126.954 114.678 127.303C116.824 127.664 118.741 126.299 119.09 124.216C119.461 122.007 118.096 120.09 115.95 119.73C113.867 119.38 111.94 120.808 111.58 122.954ZM108.739 122.477C109.365 118.753 112.767 116.274 116.427 116.889C120.088 117.504 122.556 120.969 121.931 124.693C121.326 128.29 117.862 130.759 114.201 130.144C110.54 129.529 108.135 126.075 108.739 122.477ZM145.434 125.786C144.769 127.815 144.208 129.993 143.732 132.054C142.282 139.144 139.264 154.018 137.684 163.422C136.518 170.364 140.47 173.494 146.466 174.502C158.016 176.442 165.662 171.107 171.309 165.306L174.122 170.192C168.823 175.467 159.293 181.978 145.471 179.656C136.382 178.129 130.759 173.356 132.498 163.005C134.067 153.664 137.381 137.801 138.494 131.174C138.886 128.839 139.068 126.598 138.997 124.704L145.434 125.786ZM216.858 156.084C215.419 153.831 213.108 150.977 211.049 148.943L214.965 146.876C216.468 148.361 219.399 151.774 220.848 153.964L216.858 156.084ZM202.315 149.553C202.65 150.648 203.091 151.89 203.384 152.847C204.6 156.426 206.769 163.605 207.993 168.678C209.71 175.456 211.212 185.443 212.057 191.231L206.848 191.718C206.278 185.457 205.005 176.807 203.383 169.85C201.949 164.093 200.158 157.757 198.92 154.694C198.511 153.651 197.767 151.904 196.99 150.735L202.315 149.553ZM189.378 162.825C191.345 162.701 193.145 162.42 194.092 162.189C201.627 160.6 217.006 155.59 225.022 156.936C233.416 158.347 236.323 163.832 235.433 169.134C234.33 175.698 229.738 179.469 220.965 177.995C218.125 177.518 215.117 176.105 213.467 175.113L214.441 170.475C216.238 171.75 218.941 173.048 221.528 173.482C227.587 174.5 230.19 171.757 230.762 168.349C231.208 165.698 229.844 162.224 224.164 161.27C215.832 159.871 196.99 166.57 191.012 168.162L189.378 162.825Z" fill="white"/>
</svg>
